<svg width="107" height="281" viewBox="0 0 107 281" fill="none" xmlns="http://www.w3.org/2000/svg">
<circle cx="53.5" cy="53.5" r="28.5" fill="#1E56A6"/>
<g clip-path="url(#clip0_65_332)">
<path d="M53.5 76C59.4674 76 65.1903 73.6295 69.4099 69.4099C73.6295 65.1903 76 59.4674 76 53.5C76 47.5326 73.6295 41.8097 69.4099 37.5901C65.1903 33.3705 59.4674 31 53.5 31C47.5326 31 41.8097 33.3705 37.5901 37.5901C33.3705 41.8097 31 47.5326 31 53.5C31 59.4674 33.3705 65.1903 37.5901 69.4099C41.8097 73.6295 47.5326 76 53.5 76ZM49.9844 60.5312H52.0938V54.9062H49.9844C48.8154 54.9062 47.875 53.9658 47.875 52.7969C47.875 51.6279 48.8154 50.6875 49.9844 50.6875H54.2031C55.3721 50.6875 56.3125 51.6279 56.3125 52.7969V60.5312H57.0156C58.1846 60.5312 59.125 61.4717 59.125 62.6406C59.125 63.8096 58.1846 64.75 57.0156 64.75H49.9844C48.8154 64.75 47.875 63.8096 47.875 62.6406C47.875 61.4717 48.8154 60.5312 49.9844 60.5312ZM53.5 42.25C54.2459 42.25 54.9613 42.5463 55.4887 43.0738C56.0162 43.6012 56.3125 44.3166 56.3125 45.0625C56.3125 45.8084 56.0162 46.5238 55.4887 47.0512C54.9613 47.5787 54.2459 47.875 53.5 47.875C52.7541 47.875 52.0387 47.5787 51.5113 47.0512C50.9838 46.5238 50.6875 45.8084 50.6875 45.0625C50.6875 44.3166 50.9838 43.6012 51.5113 43.0738C52.0387 42.5463 52.7541 42.25 53.5 42.25Z" fill="#87CEEB"/>
</g>
<circle cx="53.5" cy="140.5" r="28.5" fill="white"/>
<g clip-path="url(#clip1_65_332)">
<path d="M53.5 169C61.0587 169 68.3078 165.997 73.6525 160.653C78.9973 155.308 82 148.059 82 140.5C82 132.941 78.9973 125.692 73.6525 120.347C68.3078 115.003 61.0587 112 53.5 112C45.9413 112 38.6922 115.003 33.3475 120.347C28.0027 125.692 25 132.941 25 140.5C25 148.059 28.0027 155.308 33.3475 160.653C38.6922 165.997 45.9413 169 53.5 169ZM49.0469 149.406H51.7188V142.281H49.0469C47.5662 142.281 46.375 141.09 46.375 139.609C46.375 138.129 47.5662 136.938 49.0469 136.938H54.3906C55.8713 136.938 57.0625 138.129 57.0625 139.609V149.406H57.9531C59.4338 149.406 60.625 150.597 60.625 152.078C60.625 153.559 59.4338 154.75 57.9531 154.75H49.0469C47.5662 154.75 46.375 153.559 46.375 152.078C46.375 150.597 47.5662 149.406 49.0469 149.406ZM53.5 126.25C54.4448 126.25 55.351 126.625 56.0191 127.293C56.6872 127.962 57.0625 128.868 57.0625 129.812C57.0625 130.757 56.6872 131.663 56.0191 132.332C55.351 133 54.4448 133.375 53.5 133.375C52.5552 133.375 51.649 133 50.9809 132.332C50.3128 131.663 49.9375 130.757 49.9375 129.812C49.9375 128.868 50.3128 127.962 50.9809 127.293C51.649 126.625 52.5552 126.25 53.5 126.25Z" fill="#1E56A6"/>
</g>
<circle cx="53.5" cy="227.5" r="28.5" fill="white"/>
<g clip-path="url(#clip2_65_332)">
<path d="M53.5 256C61.0587 256 68.3078 252.997 73.6525 247.653C78.9973 242.308 82 235.059 82 227.5C82 219.941 78.9973 212.692 73.6525 207.347C68.3078 202.003 61.0587 199 53.5 199C45.9413 199 38.6922 202.003 33.3475 207.347C28.0027 212.692 25 219.941 25 227.5C25 235.059 28.0027 242.308 33.3475 247.653C38.6922 252.997 45.9413 256 53.5 256ZM49.0469 236.406H51.7188V229.281H49.0469C47.5662 229.281 46.375 228.09 46.375 226.609C46.375 225.129 47.5662 223.938 49.0469 223.938H54.3906C55.8713 223.938 57.0625 225.129 57.0625 226.609V236.406H57.9531C59.4338 236.406 60.625 237.597 60.625 239.078C60.625 240.559 59.4338 241.75 57.9531 241.75H49.0469C47.5662 241.75 46.375 240.559 46.375 239.078C46.375 237.597 47.5662 236.406 49.0469 236.406ZM53.5 213.25C54.4448 213.25 55.351 213.625 56.0191 214.293C56.6872 214.962 57.0625 215.868 57.0625 216.812C57.0625 217.757 56.6872 218.663 56.0191 219.332C55.351 220 54.4448 220.375 53.5 220.375C52.5552 220.375 51.649 220 50.9809 219.332C50.3128 218.663 49.9375 217.757 49.9375 216.812C49.9375 215.868 50.3128 214.962 50.9809 214.293C51.649 213.625 52.5552 213.25 53.5 213.25Z" fill="#1E56A6"/>
</g>
<rect x="0.5" y="0.5" width="106" height="280" rx="4.5" stroke="#9747FF" stroke-dasharray="10 5"/>
<defs>
<clipPath id="clip0_65_332">
<rect width="45" height="45" fill="white" transform="translate(31 31)"/>
</clipPath>
<clipPath id="clip1_65_332">
<rect width="57" height="57" fill="white" transform="translate(25 112)"/>
</clipPath>
<clipPath id="clip2_65_332">
<rect width="57" height="57" fill="white" transform="translate(25 199)"/>
</clipPath>
</defs>
</svg>
